<?xml version="1.0" encoding="UTF-8"?> <svg xmlns="http://www.w3.org/2000/svg" id="Grupo_2" data-name="Grupo 2" width="148.26" height="55.137" viewBox="0 0 148.26 55.137"><g id="Grupo_1" data-name="Grupo 1"><path id="Trazado_1" data-name="Trazado 1" d="M570.71,380.212V384.2h-1.994l-.236,4.179h1.89v5.406s-.494,3.121,1.462,4.711c2.526,2.054,7.7.636,7.7.636l.3-4.047h-1.758a1.7,1.7,0,0,1-1.876-1.654c-.057-1.7,0-4.992,0-4.992h3.634v-4.121h-3.456v-4.106Z" transform="translate(-505.068 -344.58)" fill="#1d1e1c"></path><path id="Trazado_2" data-name="Trazado 2" d="M658.986,407.829h-1.892a4.1,4.1,0,0,0-3.846,3.846c-.406,3.514,2.482,3.514,2.482,3.514,3.625.037,3.256-3.957,3.256-3.957v-3.4Zm6.114-3.76L664.8,419h-5.879v-1.285s-.812,1.108-3.575,1.935c-.949.284-8.419.65-8.064-7.459.383-8.756,8.4-8.463,8.4-8.463l9.409.34Z" transform="translate(-572.236 -364.626)" fill="#1d1e1c" fill-rule="evenodd"></path><path id="Trazado_3" data-name="Trazado 3" d="M785.1,380.554l-.012,3.121s-.368,3.993,3.257,3.957c0,0,2.436-.4,2.237-3.932A3.23,3.23,0,0,0,787,380.554Zm-.295,10.962h-6.033l.737-19.956h5.923l-.11,5.259s2.9-1.815,7.3-.111c6,2.323,4.879,12.252.479,14.389a7.816,7.816,0,0,1-8.294-.811v1.23Z" transform="translate(-684.333 -337.204)" fill="#1d1e1c" fill-rule="evenodd"></path><path id="Trazado_4" data-name="Trazado 4" d="M905.69,420.247h6l.529-14.794h-5.849l-.677,14.794Z" transform="translate(-792.52 -366.096)" fill="#1d1e1c"></path><path id="Trazado_5" data-name="Trazado 5" d="M910.275,374.092h5.959l.074-4.03h-5.923l-.11,4.03Z" transform="translate(-796.429 -335.927)" fill="#1d1e1c"></path><path id="Trazado_6" data-name="Trazado 6" d="M959.9,389.864h5.813l.774-20.054H960.53l-.627,20.054Z" transform="translate(-838.734 -335.714)" fill="#1d1e1c"></path><path id="Trazado_7" data-name="Trazado 7" d="M1012.534,420.5h6l.529-14.794h-5.849l-.676,14.794Z" transform="translate(-883.599 -366.311)" fill="#1d1e1c"></path><path id="Trazado_8" data-name="Trazado 8" d="M1017.116,374.34h5.96l.074-4.03h-5.923l-.111,4.03Z" transform="translate(-887.505 -336.139)" fill="#1d1e1c"></path><path id="Trazado_9" data-name="Trazado 9" d="M1068.857,380.212V384.2h-1.994l-.236,4.179h1.89v5.406s-.494,3.121,1.463,4.711c2.526,2.054,7.7.636,7.7.636l.3-4.047h-1.758a1.7,1.7,0,0,1-1.876-1.654c-.056-1.7,0-4.992,0-4.992h3.634v-4.121h-3.456v-4.106Z" transform="translate(-929.71 -344.58)" fill="#1d1e1c"></path><path id="Trazado_10" data-name="Trazado 10" d="M468.2,386.172l3.279,5.436s11.455,1.036,11.231-5.558c-.2-5.724-7.514-6.776-7.167-9.154.427-2.926,6.543-.894,6.543-.894l-2.846-4.934s-9.379-1.683-10.143,4.456a6.886,6.886,0,0,0,2.942,6.221c3.994,3,6.058,4.551,1.948,5.28a11.814,11.814,0,0,1-2.57-.156c-.774-.172-3.218-.7-3.218-.7Z" transform="translate(-419.588 -336.606)" fill="#1d1e1c"></path><path id="Trazado_11" data-name="Trazado 11" d="M138.733,154.686l3.782,6.427h9.23a4.393,4.393,0,0,0,3.977-1.588c1.549-2,7.585-11.306,7.585-11.306s1.645-2.528,3.037-2.841a13.147,13.147,0,0,1,2.8-.275h12.189l-3.9-6.37h-9.761a5.208,5.208,0,0,0-3.938,2.1c-1.235,1.955-6,8.956-6,8.956s-2.028,3.706-3.429,4.273a14.048,14.048,0,0,1-4.939.627Z" transform="translate(-138.733 -138.733)" fill="#008375"></path><path id="Trazado_12" data-name="Trazado 12" d="M168.577,207.39l3.782,6.427h9.23a4.393,4.393,0,0,0,3.978-1.588c1.549-2,7.584-11.306,7.584-11.306s1.646-2.528,3.038-2.842a13.139,13.139,0,0,1,2.8-.274H211.18l-3.9-6.37h-9.76a5.21,5.21,0,0,0-3.939,2.1c-1.235,1.955-6,8.956-6,8.956s-2.028,3.707-3.429,4.273a14.043,14.043,0,0,1-4.939.627Z" transform="translate(-164.173 -183.66)" fill="#008375"></path><path id="Trazado_13" data-name="Trazado 13" d="M200.962,260.094l3.782,6.427h9.23a4.392,4.392,0,0,0,3.977-1.588c1.549-2,7.585-11.306,7.585-11.306s1.645-2.528,3.037-2.842a13.156,13.156,0,0,1,2.8-.274h12.189l-3.9-6.37h-9.76a5.208,5.208,0,0,0-3.938,2.1c-1.235,1.955-6,8.956-6,8.956s-2.028,3.707-3.429,4.273a14.043,14.043,0,0,1-4.939.627Z" transform="translate(-191.78 -228.587)" fill="#008375"></path><path id="Trazado_14" data-name="Trazado 14" d="M233.347,312.8l3.781,6.428h9.23a4.4,4.4,0,0,0,3.978-1.588c1.548-2,7.584-11.306,7.584-11.306s1.646-2.528,3.038-2.842a13.147,13.147,0,0,1,2.8-.274H275.95l-3.9-6.37H262.29a5.207,5.207,0,0,0-3.938,2.1c-1.235,1.955-6,8.956-6,8.956s-2.028,3.707-3.429,4.273a14.046,14.046,0,0,1-4.939.627Z" transform="translate(-219.386 -273.514)" fill="#008375"></path></g></svg> 